<svg width="40" height="40" viewBox="0 0 40 40" fill="none" xmlns="http://www.w3.org/2000/svg">
<path d="M32.4444 29.6889C29.5499 29.6562 26.7436 28.6879 24.4448 26.9285C22.1461 25.1692 20.4783 22.7133 19.6907 19.9278C18.903 17.1422 19.0378 14.1766 20.0749 11.474C21.1119 8.77145 22.9956 6.47694 25.4444 4.93335C24.207 4.61169 22.934 4.44743 21.6555 4.44446C17.5299 4.44446 13.5733 6.08334 10.6561 9.00057C7.73886 11.9178 6.09998 15.8744 6.09998 20C6.09998 24.1256 7.73886 28.0822 10.6561 30.9994C13.5733 33.9167 17.5299 35.5556 21.6555 35.5556C23.9927 35.5535 26.2985 35.0179 28.3973 33.9897C30.4961 32.9614 32.3326 31.4677 33.7666 29.6222C33.3273 29.6669 32.886 29.6891 32.4444 29.6889V29.6889Z" fill="#00CABC"/>
</svg>
