<svg width="41" height="40" viewBox="0 0 41 40" fill="none" xmlns="http://www.w3.org/2000/svg">
<path d="M34.9444 30.2111C34.8454 30.006 34.6856 29.8363 34.4869 29.725C34.2881 29.6137 34.06 29.5662 33.8333 29.5889H32.8889C30.1241 29.5135 27.4665 28.5026 25.3506 26.7214C23.2347 24.9402 21.7855 22.4939 21.2398 19.7824C20.6942 17.0709 21.0843 14.2545 22.3466 11.7935C23.6088 9.33241 25.6684 7.37225 28.1889 6.23331C28.4043 6.14289 28.5858 5.98686 28.7075 5.78738C28.8292 5.58791 28.8849 5.35515 28.8667 5.1222C28.859 4.89825 28.7838 4.68185 28.651 4.50141C28.5181 4.32096 28.3338 4.1849 28.1222 4.11109C26.3404 3.46921 24.4606 3.14212 22.5667 3.14442C18.111 3.14442 13.8379 4.91442 10.6873 8.06503C7.53666 11.2156 5.76666 15.4888 5.76666 19.9444C5.76666 24.4001 7.53666 28.6732 10.6873 31.8238C13.8379 34.9744 18.111 36.7444 22.5667 36.7444C24.8644 36.7582 27.1395 36.2897 29.2449 35.3691C31.3502 34.4485 33.2389 33.0963 34.7889 31.4C34.9258 31.2374 35.0132 31.039 35.0408 30.8283C35.0684 30.6176 35.0349 30.4034 34.9444 30.2111ZM22.6 34.5778C18.7337 34.5778 15.0258 33.0419 12.292 30.308C9.55809 27.5742 8.02222 23.8662 8.02222 20C8.02222 16.1337 9.55809 12.4258 12.292 9.69193C15.0258 6.95807 18.7337 5.4222 22.6 5.4222C23.3444 5.41832 24.0879 5.47779 24.8222 5.59998C22.4421 7.26752 20.6204 9.61423 19.595 12.3335C18.5696 15.0527 18.3884 18.018 19.0748 20.8419C19.7613 23.6657 21.2836 26.2169 23.4428 28.162C25.6021 30.107 28.2978 31.3556 31.1778 31.7444C28.7043 33.5996 25.6918 34.5947 22.6 34.5778Z" fill="#00A3A3"/>
</svg>
