<!-- Generator: Adobe Illustrator 25.2.1, SVG Export Plug-In  -->
<svg version="1.1" xmlns="http://www.w3.org/2000/svg" xmlns:xlink="http://www.w3.org/1999/xlink" x="0px" y="0px"
	 width="1875.1px" height="900px" viewBox="0 0 1875.1 900" style="overflow:visible;enable-background:new 0 0 1875.1 900;"
	 xml:space="preserve">
<style type="text/css">
	.st0{fill:#B374F2;stroke:#B374F2;stroke-width:4;stroke-miterlimit:10;}
	.st1{fill:#B374F2;}
	.st2{fill:#00A3A3;}
</style>
<defs>
</defs>
<g>
	<g>
		<g>
			<path class="st0" d="M1252.8,685.5c7.1-1.8,18.2-2.7,33.2-2.7c2.1,0,3.9,0.1,5.3,0.3c1.4,0.2,2.1,0.7,2.1,1.6
				c0,1.2-0.5,2.2-1.5,2.9c-0.3,0.2-0.7,0.3-1.1,0.3h-7.3c-15.3,0-25.8,0.9-31.4,2.8c-1.4,4.9-3,12.1-5,21.6
				c-1.9,9.5-3.3,16-4.2,19.5c2.3,0.3,7.3,0.4,14.9,0.4c7.6,0,12.7-0.1,15.2-0.2c1.2,0.4,1.9,0.9,1.9,1.8c0,1.5-0.7,2.4-2.2,2.9
				c-1.4,0.5-3.7,0.7-6.9,0.7l-24-0.6c-1.2,4.4-3,12-5.3,22.7c-2.3,10.7-4.2,18.7-5.8,23.9l42.1,0.9c3.6,0,6.1-0.1,7.5-0.2
				c1.2,0.4,1.9,1,1.9,1.8c0,1.5-0.8,2.5-2.4,2.9c-1.1,0.3-3.3,0.5-6.5,0.5c-3.2,0-7-0.1-11.1-0.2c-4.2-0.1-8.2-0.3-12.1-0.4
				c-3.9-0.1-7.5-0.3-10.8-0.4c-3.3-0.1-6-0.2-8.1-0.2l-3.7,0.3c-1.2,0-2.1-0.3-2.5-0.8c-0.4-0.5-0.6-1-0.6-1.5
				c0-0.5,0.1-0.9,0.4-1.3c0.2-0.4,0.6-1,1-1.9c0.4-0.9,0.8-2,1.3-3.5c0.9-2.7,1.9-6.3,2.9-10.7c1-4.4,2.9-13.3,5.8-26.8
				c2.8-13.5,6.4-29.9,10.6-49.1c-1.2-0.1-1.8-0.8-1.8-2.1c0-1.3,1.1-2.5,3.2-3.6c0-2.3,1.1-3.4,3.2-3.4
				C1252,683.8,1252.6,684.4,1252.8,685.5z"/>
			<path class="st0" d="M1307.6,737.4c-3.6,0-5.3,2.1-5.3,6.2c0,2.7,0.6,5.6,1.9,8.5c1.3,2.9,2.4,5.2,3.2,7
				c3.4,6.9,5.2,12.1,5.2,15.7c0,3.6-1.1,6.7-3.3,9.3c-2.2,2.6-5.4,4.1-9.5,4.6h-0.7c-4,0-6.9-2.5-8.7-7.4c-0.1-0.2-0.1-0.3-0.1-0.5
				v-0.5c0-0.7,0.2-1.4,0.7-1.8c0.5-0.5,1-0.8,1.5-0.9h0.6c0.7,0,1.3,0.3,1.7,0.9c0.4,0.6,0.9,1.2,1.3,1.9c0.4,0.7,0.8,1.3,1.3,1.9
				c0.5,0.6,1.3,0.9,2.4,0.9c2.4,0,4.3-0.8,5.8-2.3c1.4-1.5,2.2-3.2,2.2-5c0-1.8-0.3-3.6-0.8-5.2c-0.9-2.7-2.4-6.1-4.6-10.2
				c-3.6-6.7-5.4-11.9-5.4-15.7c0-3.7,0.9-6.8,2.8-9.2c1.9-2.4,4.5-3.6,8-3.6c2.1,0,4,0.4,5.5,1.3c2.9,1.7,4.3,3.5,4.3,5.6
				c0,2.1-0.9,3.1-2.6,3.1c-0.6,0-1.2-0.2-1.6-0.7c-0.4-0.5-0.8-1-1.3-1.6C1310.6,738.1,1309.2,737.4,1307.6,737.4z"/>
			<path class="st0" d="M1335.2,738.1c-3,0-5.6,0.2-7.8,0.5c-1.5-0.1-2.2-0.8-2.2-1.9c0-0.6,0.3-1.3,0.8-2c0.5-0.7,1.2-1.1,2.1-1.2
				l7.9,0.2c0.1-0.7,0.3-1.6,0.5-2.7c0.2-1,0.4-2.6,0.9-4.6c0.4-2,1-3.8,1.7-5.5c0.7-1.6,1.7-2.4,2.8-2.4s1.8,0.7,1.8,2v0.7
				c-1,4.4-1.9,8.5-2.6,12.4h7.8c2.8,0,4.5,0.2,5.1,0.6c0.6,0.4,0.9,1,0.9,1.6c0,1.2-0.8,2.1-2.3,2.4c-0.8,0.2-2.4,0.3-4.7,0.3
				c-2.4,0-4.9-0.1-7.7-0.3c-0.7,3.6-2.2,10.2-4.5,19.9c-2.3,9.7-3.5,16-3.5,18.8c0,2.8,0.3,4.7,1,5.6c0.5,0.6,1.2,0.9,2.3,0.9
				c1.1,0,2-0.3,2.8-1c0.8-0.6,1.5-1.3,2.1-2.1c0.6-0.8,1.3-1.5,1.9-2.1c0.6-0.6,1.3-1,2.1-1c1.5,0,2.2,0.7,2.2,2.2
				c0,0.7-0.7,2-2.2,3.7c-1.5,1.7-2.8,3-4.1,4c-1.2,0.9-3.1,1.4-5.4,1.4c-2.4,0-4-0.4-4.9-1.2c-1.8-1.6-2.8-4.2-2.8-7.8
				c0-1.8,0.2-4,0.6-6.6l1-6.2c0.7-3.1,1.3-5.7,1.8-8c0.5-2.3,1-4.3,1.4-6c0.4-1.7,0.9-4,1.5-6.8
				C1334.2,743.3,1334.7,740.7,1335.2,738.1z"/>
			<path class="st0" d="M1387,790.9c-2.2,0-3.2-2.9-3.2-8.7c0-3.8,0.4-7.6,1.1-11.6c0.7-3.9,1.5-7.8,2.3-11.6
				c-1.3,2.3-2.6,4.7-3.7,7.2c-1.2,2.5-2.2,4.5-3.1,6c-0.9,1.5-1.6,2.8-2.1,3.8c-4.6,8.7-8.8,13.1-12.8,13.1
				c-3.9,0-5.9-3.9-5.9-11.7c0-10,1.6-21.3,4.7-33.9l1.7-6.6c0.7-2.4,1.8-3.6,3.4-3.6c0.9,0,1.5,0.6,1.9,1.9
				c-0.1,1.1-0.4,2.2-0.9,3.1c-0.5,1-0.8,2-1,3.2c-3.1,15.8-4.7,26.5-4.7,32.3l-0.1,5.1c0,2.9,0.5,4.4,1.4,4.4
				c2.8,0,7.5-6.5,14.1-19.6c1-2,2.3-4.5,3.8-7.5c1.5-3,2.7-5.3,3.5-6.9c0.9-1.6,1.6-3.1,2.3-4.6c2.8-6.1,5.2-9.2,7.2-9.2
				c1.2,0,1.9,0.7,1.9,2.1c0,1.4-0.7,3.6-2.1,6.7c-1.4,3.1-2.5,6.3-3.4,9.6c-2.6,9.1-4.1,18.7-4.7,28.6v0.6c0,1.1,0.2,1.9,0.7,2.4
				c0.4,0.5,0.8,0.9,1,1.1c0.2,0.2,0.3,0.7,0.3,1.4c0,0.7-0.4,1.4-1.3,2C1388.4,790.6,1387.7,790.9,1387,790.9z"/>
			<path class="st0" d="M1437.5,738.1l5.2-22.9c0.4-1.6,1.2-5.8,2.6-12.6c1.4-6.8,2.4-11.5,3-14.2l0.2-1.3c0-0.9,0.3-1.7,0.9-2.4
				c0.6-0.7,1.3-1,1.9-1c1.6,0,2.3,0.8,2.3,2.5v0.5c0,1.7-1.3,8.4-3.8,19.9s-4.1,19.6-4.9,24.3c-0.7,4.7-2.2,11.2-4.2,19.7
				c-2.1,8.4-3.4,14.1-3.9,17c-0.5,2.9-1,5.4-1.5,7.5c-0.5,2-0.7,4.1-0.7,6.1s0.3,4.1,1,6.1c-0.1,0.9-0.5,1.6-1.2,2.2
				c-0.7,0.6-1.3,0.9-1.9,0.9c-0.9,0-1.7-1.1-2.4-3.3c-0.7-2.2-1-4-1-5.5c0-1.5,0.2-3.2,0.6-5.2c-1.5,4.4-3.3,7.7-5.6,9.8
				c-2.3,2.1-5.3,3.2-9.1,3.2c-3.7,0-6.4-1.5-8-4.6c-1.6-3.1-2.4-6.1-2.4-9c0-10.9,2.1-20.1,6.2-27.6c1.9-3.5,3.6-6.1,5.1-7.7
				c1.5-1.7,3.4-3.3,5.7-4.8c2.3-1.5,5.1-2.3,8.5-2.3C1433.5,733.2,1436,734.9,1437.5,738.1z M1433.6,755.3c0.6-2.9,0.9-4.7,1.1-5.5
				c0.2-0.8,0.2-2.1,0.2-3.9c0-1.8-0.5-3.6-1.6-5.4c-1.1-1.7-2.6-2.6-4.5-2.6c-3.5,0-6.7,2.2-9.6,6.6c-2.9,4.4-5.2,9.5-6.9,15.3
				c-1.7,5.8-2.6,10.8-2.6,14.8c0,4,1.1,6.9,3.4,8.6c0.7,0.6,1.7,0.9,3,0.9c2.5,0,5.2-2.1,8.1-6.4c2.9-4.3,5-8.4,6.4-12.2
				C1432,761.5,1433,758.1,1433.6,755.3z"/>
			<path class="st0" d="M1462.2,739.9v-1.1c0-0.5-0.3-1.7-0.8-3.6c0-0.9,0.3-1.7,0.9-2.4c0.6-0.7,1.3-1.1,2.2-1.1
				c0.9,0,1.6,0.6,2.2,1.7c0.6,1.1,0.9,2.3,0.9,3.6c0,1.3-1.7,9.2-5,23.5c-3.3,14.4-5,22-5,22.7c0,0.8,0.4,1.1,1.1,1.1
				c0.5,0,1.1-0.5,2-1.4c0.9-0.9,1.6-1.4,2.2-1.4c1.2,0,1.8,0.7,1.8,2.2c0,1.5-1.1,2.8-3.3,3.9c-2.2,1.1-3.8,1.7-4.8,1.7
				c-2.5,0-3.7-2-3.7-6c0-0.8,0.2-1.7,0.5-2.7c0.3-1,0.7-2.4,1.1-4.2c0.4-1.8,0.9-4.2,1.6-7.3c0.7-3.1,1.4-6.3,2.1-9.6
				c0.7-3.3,1.6-7.3,2.7-12C1461.7,742.8,1462.2,740.3,1462.2,739.9z M1469.7,715c2.1,0,3.1,1,3.1,3.1c0,3.1-1.1,4.8-3.2,5.2
				c-0.6,0.1-1.3,0.2-2,0.2c-0.7,0-1.4-0.4-2.1-1.1c-0.7-0.7-1.1-1.6-1.1-2.7c0-1.1,0.6-2.2,1.7-3.2
				C1467.3,715.5,1468.5,715,1469.7,715z"/>
			<path class="st0" d="M1500.9,733.2c6.7,0,10.1,5.1,10.1,15.2c0,7.9-2.2,16.4-6.6,25.5c-2.9,6.1-6.5,10.5-10.7,13.2
				c-2.1,1.4-4.3,2.1-6.6,2.1c-4,0-6.9-1.6-8.6-4.8c-1.7-3.2-2.6-6.6-2.6-10.3c0-6.6,1.1-13,3.3-19.2c2.2-6.2,5.2-11.4,9.1-15.5
				C1492.1,735.3,1496.3,733.2,1500.9,733.2z M1486.6,750.9c-3.8,7.7-5.8,15.2-5.8,22.5c0,5.1,1.4,8.5,4.2,10.2
				c0.9,0.5,1.8,0.8,2.9,0.8c2.3,0,4.8-2,7.6-5.9c2.8-3.9,5.2-8.8,7.1-14.6c1.9-5.8,2.9-10.7,2.9-14.9c0-4.1-0.2-6.8-0.7-7.9
				c-0.5-1.1-1-1.9-1.7-2.3c-0.6-0.4-1.7-0.6-3.1-0.6s-3,0.6-4.7,1.7C1492.1,742.1,1489.2,745.7,1486.6,750.9z"/>
			<path class="st0" d="M1595.5,738.1l5.2-22.9c0.4-1.6,1.2-5.8,2.6-12.6c1.4-6.8,2.4-11.5,3-14.2l0.2-1.3c0-0.9,0.3-1.7,0.9-2.4
				c0.6-0.7,1.3-1,1.9-1c1.6,0,2.3,0.8,2.3,2.5v0.5c0,1.7-1.3,8.4-3.8,19.9c-2.5,11.5-4.1,19.6-4.9,24.3s-2.2,11.2-4.2,19.7
				c-2.1,8.4-3.4,14.1-3.9,17c-0.5,2.9-1,5.4-1.5,7.5c-0.5,2-0.7,4.1-0.7,6.1s0.3,4.1,1,6.1c-0.1,0.9-0.5,1.6-1.2,2.2
				c-0.7,0.6-1.3,0.9-1.9,0.9c-0.9,0-1.7-1.1-2.4-3.3c-0.7-2.2-1-4-1-5.5c0-1.5,0.2-3.2,0.6-5.2c-1.5,4.4-3.3,7.7-5.6,9.8
				c-2.3,2.1-5.3,3.2-9.1,3.2c-3.7,0-6.4-1.5-8-4.6c-1.6-3.1-2.4-6.1-2.4-9c0-10.9,2.1-20.1,6.2-27.6c1.9-3.5,3.6-6.1,5.1-7.7
				c1.5-1.7,3.4-3.3,5.7-4.8c2.3-1.5,5.1-2.3,8.5-2.3C1591.6,733.2,1594,734.9,1595.5,738.1z M1591.6,755.3c0.6-2.9,0.9-4.7,1.1-5.5
				c0.2-0.8,0.2-2.1,0.2-3.9c0-1.8-0.5-3.6-1.6-5.4c-1.1-1.7-2.6-2.6-4.5-2.6c-3.5,0-6.7,2.2-9.6,6.6c-2.9,4.4-5.2,9.5-6.9,15.3
				c-1.7,5.8-2.6,10.8-2.6,14.8c0,4,1.1,6.9,3.4,8.6c0.7,0.6,1.7,0.9,3,0.9c2.5,0,5.2-2.1,8.1-6.4c2.9-4.3,5-8.4,6.4-12.2
				C1590,761.5,1591,758.1,1591.6,755.3z"/>
			<path class="st0" d="M1635,779.4c1.2,0,1.9,0.7,1.9,2c0,1.5-1.9,3.2-5.6,5.2c-3.7,1.9-6.8,2.9-9.3,2.9c-2.5,0-4.3-0.4-5.6-1.2
				c-1.2-0.8-2.3-2-3-3.4c-1.5-2.8-2.3-6.3-2.3-10.3c0-7.1,1.1-13.8,3.2-20.1c2.1-6.3,5-11.5,8.5-15.6c3.6-4.1,7.4-6.2,11.5-6.2
				c2.2,0,3.9,0.9,5.2,2.7c1.3,1.8,1.9,4,1.9,6.5c0,4.7-1.2,8.6-3.6,11.8c-2.4,3.2-5.4,5.9-9,7.9c-3.6,2.1-7.6,4-12.2,5.9l-0.2,7.8
				c0,6.1,1.8,9.2,5.5,9.2c2,0,4.1-0.6,6.3-1.7c2.2-1.2,3.8-2,4.7-2.5C1633.7,779.6,1634.4,779.4,1635,779.4z M1636.3,742
				c0-2.8-1.2-4.3-3.6-4.3c-2.1,0-4.6,1.9-7.5,5.8c-2.9,3.8-5.3,8.9-7.1,15.2c-0.5,1.5-0.7,2.7-0.8,3.5c1.4-0.8,2.9-1.5,4.4-2.2
				c1.5-0.7,2.9-1.5,4.4-2.2c3.3-1.8,5.8-3.9,7.6-6.4C1635.4,748.8,1636.3,745.7,1636.3,742z"/>
			<path class="st0" d="M1699.2,753.5c2.8,0.4,7.5,0.7,14.2,1c6.1-9.3,14-22.9,23.6-41c6-11.3,9.9-21,11.7-29.2
				c0.3-0.7,0.7-1.4,1.4-1.9c0.6-0.5,1.3-0.7,1.9-0.7c0.9,0,1.4,0.6,1.5,1.7c0.6,0.6,0.8,1.2,0.8,1.9c-0.1,0.7-0.3,1.3-0.7,1.7
				c-0.8,2.9-1.4,5.9-1.7,9c-0.3,3.1-1,9-2.1,17.4c-1,8.5-1.6,15.6-1.6,21.4c0,5.8,0.4,12.8,1.3,21.1c4.4,0.5,6.7,0.9,7.1,1.4
				c0.4,0.5,0.5,1,0.5,1.7c0,0.6-0.3,1.2-1,1.8c-0.7,0.6-1.4,0.9-2.1,0.9c-0.8-0.1-1.4-0.1-2-0.2c-0.6-0.1-1.2-0.2-1.8-0.2v0.5
				c0,0.2,0.1,0.8,0.2,1.7c0.1,0.9,0.2,2.1,0.2,3.7c0,1.6,0.1,3,0.2,4.2c0.1,1.2,0.3,2.5,0.6,3.8c0.3,1.3,0.7,3.2,1.3,5.7
				c0.6,2.5,0.8,4.1,0.8,4.9c0,0.8-0.3,1.5-0.9,2.1c-0.6,0.6-1.2,0.9-2,0.9c-0.7,0-1.4-0.5-1.9-1.6c-0.5-1-1-2.4-1.3-4
				c-0.4-1.6-0.6-3.5-0.9-5.5c-0.2-2-0.4-4-0.6-6c-0.2-2-0.3-3.8-0.5-5.5c-0.1-1.7-0.3-3-0.4-4l-0.3-1.5c-4.8-0.5-9.7-0.8-14.6-0.9
				c-4.9-0.1-9.9-0.2-14.8-0.3c-9.4,14.2-18.2,23.2-26.5,26.9c-2.8,1.4-4.9,2.1-6.5,2.1c-1.9,0-2.9-0.9-2.9-2.7c0-0.9,0.3-1.7,1-2.4
				c0.6-0.7,1.3-1,2-1c0.7,0,1.2,0.3,1.6,0.9l0.1-0.1c7.6-2.9,14.8-8.9,21.5-17.9c1-1.4,1.9-2.5,2.5-3.4c0.6-0.8,1.3-1.7,1.9-2.6
				c-5.5-0.3-9.6-0.6-12.4-0.9c-1-0.4-1.5-1-1.5-1.8c0-0.8,0.3-1.5,0.9-2.1C1697.8,754,1698.5,753.6,1699.2,753.5z M1744.3,755.4
				c-0.6-4.8-0.9-11.2-0.9-19.4c0-8.1,0.8-18,2.3-29.6c-4.3,8.9-9.1,17.9-14.3,27.1c-5.2,9.1-9.4,16.2-12.6,21.1
				c4.3,0.1,8.5,0.1,12.8,0.2C1735.9,754.8,1740.1,755,1744.3,755.4z"/>
			<path class="st0" d="M1768.9,788.1l2.4-13c1.3-6.6,2.1-11.4,2.6-14.1c0.5-2.8,1-5.9,1.6-9.2c0.6-3.4,1.8-8.2,3.6-14.5
				c-0.1-0.2-0.1-0.3-0.1-0.5v-0.5c0-1.7,0.7-2.9,2-3.7c0.4-0.2,0.8-0.4,1.2-0.4c1.5,0,2.3,1.1,2.3,3.3c0,1.3-0.5,3.6-1.5,6.9
				c-1,3.3-1.8,6.4-2.4,9.2c0.5-0.8,1.1-1.8,1.8-3.1c0.7-1.2,1.9-3.1,3.5-5.4c1.6-2.4,3.6-4.6,6-6.8c2.4-2.1,4.8-3.2,7.3-3.2
				c2.5,0,4.4,0.7,5.7,2c0.5,0.5,0.7,1,0.7,1.8c0,0.7-0.3,1.4-1,1.9c-0.6,0.6-1.3,0.9-2,0.9c-0.7,0-1.3-0.2-2-0.6
				c-0.6-0.4-1.3-0.6-2.1-0.6c-0.8,0-2,0.6-3.7,1.9c-6.8,4.9-12.4,14.7-16.8,29.3c-1.2,3.9-1.9,6.6-2.1,8.1
				c-0.2,1.5-0.5,2.7-0.6,3.6c-1.1,5.7-2.7,8.6-4.9,8.6C1769.5,790.1,1768.9,789.4,1768.9,788.1z"/>
			<path class="st0" d="M1817.8,738.1c-3,0-5.6,0.2-7.8,0.5c-1.5-0.1-2.2-0.8-2.2-1.9c0-0.6,0.3-1.3,0.8-2c0.5-0.7,1.2-1.1,2.1-1.2
				l7.9,0.2c0.1-0.7,0.3-1.6,0.5-2.7c0.2-1,0.4-2.6,0.9-4.6c0.4-2,1-3.8,1.7-5.5c0.7-1.6,1.7-2.4,2.8-2.4c1.2,0,1.8,0.7,1.8,2v0.7
				c-1,4.4-1.9,8.5-2.6,12.4h7.8c2.8,0,4.5,0.2,5.1,0.6c0.6,0.4,0.9,1,0.9,1.6c0,1.2-0.8,2.1-2.3,2.4c-0.8,0.2-2.4,0.3-4.7,0.3
				c-2.4,0-4.9-0.1-7.7-0.3c-0.7,3.6-2.2,10.2-4.5,19.9c-2.3,9.7-3.5,16-3.5,18.8c0,2.8,0.3,4.7,1,5.6c0.5,0.6,1.2,0.9,2.3,0.9
				c1.1,0,2-0.3,2.8-1c0.8-0.6,1.5-1.3,2.1-2.1c0.6-0.8,1.3-1.5,1.9-2.1c0.6-0.6,1.3-1,2.1-1c1.5,0,2.2,0.7,2.2,2.2
				c0,0.7-0.7,2-2.2,3.7c-1.5,1.7-2.8,3-4.1,4c-1.2,0.9-3.1,1.4-5.4,1.4c-2.4,0-4-0.4-4.9-1.2c-1.8-1.6-2.8-4.2-2.8-7.8
				c0-1.8,0.2-4,0.6-6.6l1-6.2c0.7-3.1,1.3-5.7,1.8-8c0.5-2.3,1-4.3,1.4-6c0.4-1.7,0.9-4,1.5-6.8
				C1816.8,743.3,1817.3,740.7,1817.8,738.1z"/>
			<path class="st0" d="M1865.3,779.4c1.2,0,1.9,0.7,1.9,2c0,1.5-1.9,3.2-5.6,5.2c-3.7,1.9-6.8,2.9-9.3,2.9c-2.5,0-4.3-0.4-5.6-1.2
				c-1.2-0.8-2.3-2-3-3.4c-1.5-2.8-2.3-6.3-2.3-10.3c0-7.1,1.1-13.8,3.2-20.1c2.1-6.3,5-11.5,8.5-15.6c3.6-4.1,7.4-6.2,11.5-6.2
				c2.2,0,3.9,0.9,5.2,2.7c1.3,1.8,1.9,4,1.9,6.5c0,4.7-1.2,8.6-3.6,11.8c-2.4,3.2-5.4,5.9-9,7.9c-3.6,2.1-7.6,4-12.2,5.9l-0.2,7.8
				c0,6.1,1.8,9.2,5.5,9.2c2,0,4.1-0.6,6.3-1.7c2.2-1.2,3.8-2,4.7-2.5C1864.1,779.6,1864.8,779.4,1865.3,779.4z M1866.7,742
				c0-2.8-1.2-4.3-3.6-4.3c-2.1,0-4.6,1.9-7.5,5.8c-2.9,3.8-5.3,8.9-7.1,15.2c-0.5,1.5-0.7,2.7-0.8,3.5c1.4-0.8,2.9-1.5,4.4-2.2
				c1.5-0.7,2.9-1.5,4.4-2.2c3.3-1.8,5.8-3.9,7.6-6.4C1865.8,748.8,1866.7,745.7,1866.7,742z"/>
		</g>
		<g>
			<path class="st0" d="M899.3,287c23.8,0,39.5,12.8,47.1,38.5c0.8,1.3,1.2,2.9,1.2,4.7c0,1.8-0.9,3.6-2.6,5.1
				c-1.7,1.6-3.5,2.4-5.3,2.4c-3.1,0-4.9-1.9-5.5-5.7c-1.4-8.9-5.2-16.6-11.3-22.8c-6.2-6.3-14-9.4-23.6-9.4s-16.8,3.3-21.6,10
				c-4.9,6.7-7.3,14.5-7.3,23.6c0,9,1.2,18.3,3.7,27.9c2.4,9.5,5.5,19.1,9.2,28.6c3.7,9.5,7.6,19.1,11.9,28.6
				c4.2,9.5,8.2,19.1,11.9,28.8c8.5,22.4,12.8,42.5,12.8,60.3c0,17.8-4.9,34.2-14.8,49c-12.6,19.4-32.5,29.1-59.6,29.1
				c-20.8,0-38.7-5.2-53.9-15.5c-15.2-10.3-22.7-25.2-22.7-44.4c0-19.3,5.8-35.9,17.3-50c4.2-5.1,9.3-10.3,15.4-15.7
				c2-1.7,3.9-2.5,5.7-2.5c4,0,6,1.6,6,4.9c0,1.7-0.4,3.2-1.3,4.6c-10.1,9.3-16.9,17.1-20.1,23.3c-5.5,10.7-8.2,21.1-8.2,31
				c0,9.9,1.7,17.9,5.2,23.9c3.5,6,8.1,10.9,13.9,14.9c11.3,8,26.1,11.9,44.2,11.9c18.1,0,32.8-7.2,44.1-21.5
				c9.6-12.2,14.5-27.2,14.5-44.8c0-17.6-8.3-45.7-24.8-84c-16.5-38.4-24.8-65-24.8-80c0-15,3.6-27.8,10.7-38.6
				C873.5,292.4,884.5,287,899.3,287z"/>
			<path class="st0" d="M962,519.7c5,0.6,13.5,1.2,25.5,1.7c11.1-16.7,25.2-41.3,42.5-73.7c10.8-20.3,17.8-37.8,21-52.5
				c0.5-1.3,1.3-2.5,2.5-3.4c1.2-0.9,2.3-1.3,3.4-1.3c1.7,0,2.6,1,2.8,3c1,1,1.5,2.2,1.4,3.5c-0.1,1.3-0.5,2.3-1.2,3
				c-1.5,5.2-2.5,10.6-3.1,16.2c-0.6,5.7-1.9,16.1-3.7,31.4c-1.9,15.3-2.8,28.1-2.8,38.5s0.8,23.1,2.4,38c7.9,0.8,12.1,1.7,12.8,2.6
				c0.6,0.9,1,1.9,1,3s-0.6,2.2-1.8,3.3c-1.2,1.1-2.5,1.6-3.8,1.5c-1.4-0.1-2.6-0.2-3.6-0.4c-1-0.2-2.1-0.3-3.2-0.4v1
				c0,0.4,0.1,1.4,0.3,3c0.2,1.6,0.4,3.8,0.4,6.6c0,2.8,0.2,5.3,0.4,7.5c0.2,2.2,0.6,4.5,1.1,6.9c0.5,2.4,1.3,5.8,2.3,10.2
				c1,4.4,1.5,7.4,1.5,8.8s-0.5,2.7-1.6,3.7c-1.1,1.1-2.2,1.6-3.5,1.6c-1.3,0-2.4-0.9-3.4-2.8c-1-1.9-1.8-4.3-2.4-7.2
				c-0.6-2.9-1.2-6.2-1.6-9.9c-0.4-3.6-0.8-7.2-1.1-10.8c-0.3-3.5-0.6-6.8-0.8-9.9c-0.2-3-0.5-5.4-0.7-7.1l-0.6-2.7
				c-8.7-0.9-17.5-1.4-26.4-1.5c-8.9-0.1-17.8-0.3-26.7-0.5c-16.9,25.6-32.8,41.7-47.7,48.5c-5,2.5-8.9,3.7-11.7,3.7
				c-3.5,0-5.2-1.6-5.2-4.9c0-1.7,0.6-3.1,1.7-4.3c1.2-1.2,2.3-1.8,3.6-1.8c1.2,0,2.2,0.5,2.9,1.6l0.2-0.2
				c13.7-5.3,26.6-16,38.7-32.2c1.9-2.6,3.4-4.6,4.5-6s2.3-3,3.4-4.6c-9.9-0.5-17.3-1-22.2-1.5c-1.8-0.7-2.7-1.8-2.7-3.2
				s0.6-2.7,1.7-3.8C959.3,520.5,960.6,519.9,962,519.7z M1043.1,523c-1.1-8.6-1.6-20.2-1.6-34.8c0-14.7,1.4-32.4,4.1-53.3
				c-7.7,16-16.3,32.3-25.7,48.7c-9.4,16.5-17,29.1-22.7,38c7.7,0.1,15.4,0.2,23.1,0.3C1028,522,1035.6,522.4,1043.1,523z"/>
			<path class="st0" d="M1229.9,397c1.7-3.1,3.6-4.7,5.7-4.7c2.1,0,3.1,1,3.1,2.9c0,0.2,0,0.4,0,0.6c-3.9,65-6.1,124.8-6.5,179.3
				c0.8,1.7,0.8,3.3-0.1,5c-1.5,3.1-3.3,4.7-5.4,4.7c-2.5,0-3.8-2.2-4-6.6c-0.1-1.3-0.1-5.3-0.1-12.2c0-6.8,0.2-16.6,0.5-29.1
				c0.4-12.6,0.8-25.2,1.2-37.9s1-25.3,1.5-38c0.5-12.6,0.9-25.1,1.2-37.4c-6.3,14.1-17.3,36.1-32.9,65.8
				c-15.6,29.7-26.1,50-31.5,60.8c-1.5,2.7-3.1,4.1-5,4.1c-1.9,0-3.1-0.9-3.8-2.8c-3.3-15.3-8.4-38.2-15.1-68.5
				c-6.8-30.4-11.4-51.7-13.9-64.1c-4.3,21.7-11.1,51.7-20.3,89.9c-9.3,38.2-15,62.2-17.2,71.9c-1.3,2.6-3.1,3.9-5.5,3.9
				c-2,0-3.1-1.3-3.4-3.9c4.2-22.8,11.2-54.9,21.2-96.3c10-41.4,16.8-70.4,20.6-87.1c0.4-1.3,1.1-2.4,2.3-3.3
				c1.1-0.9,2.2-1.4,3.1-1.4c1.9,0,3.1,1.1,3.6,3.3c5.4,23.5,10.9,48.6,16.4,75.3c5.5,26.7,10,47.5,13.6,62.4
				c8.8-15.1,16.9-30.1,24.3-45c7.5-14.9,14.8-29.6,22.1-44.1C1213,429.8,1221,414,1229.9,397z"/>
			<path class="st0" d="M1277.9,402.6c-2.5,0-3.7-1.2-3.7-3.6c0-1.1,0.6-2.2,1.8-3.3c1.2-1.1,2.7-1.7,4.3-1.9h16.8
				c6.6,0,14,0.1,22,0.2c2,0.7,3,1.7,3,3.1s-0.5,2.6-1.5,3.6c-1,1.1-2.3,1.8-3.7,2.1h-6.2c-1.8,0-4.3-0.1-7.5-0.2
				c-18.9,76.1-31.8,133-38.7,170.8c12.1,0.3,18.7,1.5,19.7,3.6c0.3,0.5,0.5,1.2,0.5,2s-0.6,1.8-1.7,3c-1.1,1.2-2.4,1.9-4,2.1
				c-3.6,0-7.3-0.3-11.2-0.9c-3.9-0.6-6.9-1-9-1.2c-2.1-0.3-4.7-0.4-7.7-0.4c-3,0-6.2,0.5-9.5,1.5h-1.1c-1.3,0-2.3-0.3-3-1
				c-0.6-0.7-1-1.5-1-2.3c0-4.4,6.2-6.6,18.5-6.6h0.8c5.4-29.1,12.3-61.4,20.6-96.7c8.3-35.3,14.1-60,17.3-73.9
				c-1,0.1-1.8,0.1-2.4,0.1h-5.2L1277.9,402.6z"/>
			<path class="st0" d="M1459.1,484.9c7.9,1,21.1,1.9,39.7,2.7c17.2-25.9,39.2-64.2,66.1-114.7c16.8-31.6,27.7-58.9,32.7-81.7
				c0.8-2.1,2.1-3.8,3.9-5.2c1.8-1.4,3.5-2.1,5.2-2.1c2.6,0,4,1.5,4.3,4.6c1.6,1.6,2.3,3.4,2.2,5.4c-0.1,2-0.8,3.5-1.9,4.6
				c-2.3,8.1-3.9,16.5-4.8,25.3c-0.9,8.8-2.9,25.1-5.8,48.8c-2.9,23.8-4.4,43.7-4.4,59.9c0,16.2,1.2,35.9,3.7,59.1
				c12.2,1.3,18.8,2.6,19.8,4c1,1.4,1.5,2.9,1.5,4.6c0,1.7-0.9,3.4-2.8,5.1c-1.8,1.7-3.8,2.5-6,2.4c-2.1-0.1-4-0.3-5.6-0.6
				c-1.6-0.2-3.2-0.5-4.9-0.7v1.5c0,0.6,0.2,2.1,0.5,4.6c0.3,2.5,0.5,5.9,0.6,10.3c0,4.4,0.2,8.3,0.6,11.7c0.3,3.4,0.9,7,1.7,10.7
				c0.8,3.7,2,9,3.5,15.9c1.5,6.9,2.3,11.5,2.3,13.6c0,2.2-0.8,4.1-2.5,5.8s-3.5,2.5-5.5,2.5c-2,0-3.8-1.5-5.3-4.4
				c-1.5-2.9-2.7-6.7-3.7-11.3c-1-4.6-1.8-9.7-2.5-15.4c-0.6-5.7-1.2-11.3-1.7-16.8c-0.5-5.5-0.9-10.6-1.3-15.4
				c-0.3-4.7-0.7-8.4-1.1-11.1l-0.9-4.2c-13.5-1.4-27.2-2.2-41-2.4c-13.8-0.2-27.6-0.4-41.5-0.7c-26.2,39.8-51,64.9-74.3,75.5
				c-7.8,3.9-13.8,5.8-18.2,5.8c-5.4,0-8.1-2.5-8.1-7.6c0-2.6,0.9-4.8,2.7-6.7c1.8-1.9,3.7-2.8,5.6-2.8s3.5,0.8,4.5,2.5l0.3-0.3
				c21.3-8.3,41.4-25,60.2-50.1c2.9-4,5.2-7.1,7-9.4c1.8-2.3,3.5-4.7,5.2-7.2c-15.4-0.8-26.9-1.6-34.6-2.4c-2.8-1.1-4.2-2.7-4.2-4.9
				c0-2.2,0.9-4.2,2.6-6C1455,486.2,1456.9,485.2,1459.1,484.9z M1585.3,490.1c-1.7-13.3-2.5-31.4-2.5-54.2s2.1-50.5,6.4-83
				c-12,25-25.4,50.2-40,75.8c-14.7,25.6-26.4,45.3-35.3,59.1c11.9,0.2,23.9,0.4,35.9,0.5C1561.7,488.6,1573.5,489.1,1585.3,490.1z"
				/>
			<path class="st0" d="M1674.1,492.7c0-3.9,1.1-5.8,3.3-5.8c1.3,0,2.1,0.2,2.5,0.6c0.4,0.4,1.1,1,2.2,1.8c1.1,0.8,4.1,1.2,9,1.2
				c5,0,10.1-1.4,15.4-4.2c5.3-2.8,10-6.6,13.9-11.3c8.2-10,12.3-22,12.3-35.8c0-10.7-2.6-19.8-7.8-27.3c-5.2-7.4-12-11.2-20.5-11.2
				c-6.7,0-11.8,0.5-15.3,1.5l-36.2,177.1c-0.7,2.2-2.5,3.4-5.5,3.4c-2.9,0-4.4-1.1-4.4-3.2c0-0.6,0.1-1.2,0.3-2
				c0.2-0.7,0.6-2.5,1.2-5.4c1.4-7.2,6.2-30.3,14.3-69.2c8.1-38.9,15.1-71,20.8-96.2c-1.9,1.2-4.2,3-6.9,5.5c-0.1,1.4-0.8,2.6-2,3.6
				c-1.2,1-2.6,1.5-4.2,1.5l-2.4-0.6c-1.8-0.8-2.7-2.2-2.7-4c0-3.6,2.1-6.9,6.3-9.9c4.2-3,9.4-5.4,15.7-6.9c2.3-5.5,4.4-8.2,6.3-8.2
				c1.5,0,2.7,2.2,3.5,6.5c2.7-0.4,5.4-0.6,7.9-0.6c13.7,0,24.1,4.9,31.2,14.6c5.8,8.1,8.7,18.7,8.7,31.9c0,17-5,31.2-15,42.5
				c-10,11.3-24,17-41.9,17c0,21.9,3.7,43.2,11.1,63.9c8.6,24.5,21.7,42.5,39.3,54.2c13.4,8.9,29.2,13.4,47.5,13.4
				s34.9-6.1,49.9-18.4c4.5-3.8,9.3-7.9,14.2-12.3c0.5-0.5,1.3-0.8,2.5-0.8c2.4,0,3.5,1.2,3.5,3.5c0,1.3-0.5,2.7-1.5,3.9
				c-9.7,10-19.2,17.5-28.5,22.5c-12.7,6.8-27,10.3-42.9,10.3c-15.9,0-31.4-4.6-46.4-13.8c-27.1-16.7-45-44.9-53.6-84.6
				C1675.7,527.3,1674.1,511,1674.1,492.7z"/>
			<path class="st0" d="M1801.7,403.8c-15-0.4-25.3-0.6-30.9-0.6s-11.8,0.2-18.4,0.6c-2.7-0.3-4.1-1.3-4.1-3.3c0-3.6,3.3-5.7,10-6.1
				c1.9-0.1,3.7-0.2,5.6-0.2l40.2,0.8c1.9-5.5,4.3-8.2,7.5-8.2c1.9,0,3,1.1,3.4,3.4l0.4,3.9l-0.2,1c3.6-0.1,6.9-0.3,9.7-0.5
				c2.8-0.2,5.5-0.4,8-0.5c2.5-0.2,6.2-0.4,11.1-0.8c4.9-0.4,10.4-0.5,16.3-0.5h7.1c0.8,0,1.7-0.1,2.6-0.2c2.2,0.6,3.4,1.7,3.4,3.3
				c0,4-3.2,5.9-9.6,5.9c-8.3,0-17.2,0.3-26.7,1c-9.5,0.6-18.1,1-25.8,1.2c-2.2,10.8-4.8,23-7.9,36.5c-3.1,13.5-7.7,35.8-13.9,66.8
				c-6.1,31-10.9,56.7-14.2,77.2c-0.3,1.6-1,2.9-2.2,4c-1.1,1.1-2.2,1.6-3.2,1.6c-2.2,0-3.4-1.4-3.6-4.1
				c3.9-32.3,12.5-76.9,25.9-133.8c1.9-8.3,3.4-14.4,4.4-18.2c1-3.8,1.7-6.8,2-8.8c0.3-2,0.7-4.2,1-6.6c0.4-2.3,0.7-4.7,1.1-7.2
				C1800.9,408.6,1801.3,406.1,1801.7,403.8z"/>
		</g>
	</g>
	<g>
		<path class="st1" d="M162.4,869.2C-32.3,676,99.4,503.2,129,464.9c-171.9,393.2,317.8,510.6,380.8,209
			c-149.6,277-576.6,5.6-264.5-284.7C309,329.9,366.4,270.8,309.6,0c39.6,200.3-70,294.5-165.7,353.6
			C-98.5,503.2,5.4,822.2,162.4,869.2z"/>
		<path class="st2" d="M99.4,759.2c231.2,359.8,698.6-43.3,404.3-388.2c-33.6-39.4-88.4-69.6-133.5-19.8
			c-28.3,31.2-50.9,41-90.3,50.7c126.2-31.2,228.3,51.4,251,173.1C582.4,851.3,250.2,961.9,99.4,759.2z"/>
		<path class="st1" d="M725,562.6C547,649.1,491.3,476,566.7,430.3c81.6-49.5,118.7-145.9,32.1-232.4
			c44.5,124.9-59.9,138.9-113.6,211.6C366.4,570,613.7,744.3,725,562.6z"/>
	</g>
</g>
</svg>
