<svg xmlns="http://www.w3.org/2000/svg" viewBox="0 0 2024 1024"><defs><style>.cls-1{fill:#724694;stroke:#724694;stroke-miterlimit:10;stroke-width:4px;}.cls-2{fill:#7743a1;}.cls-3{fill:#00a3a3;}</style></defs><g id="Capa_8" data-name="Capa 8"><path class="cls-1" d="M1328.26,747.46q10.66-2.72,33.24-2.72a36.08,36.08,0,0,1,5.27.32c1.39.21,2.08.75,2.08,1.6a3.3,3.3,0,0,1-1.49,2.88,2,2,0,0,1-1.12.31h-7.35q-23,0-31.42,2.83-2.09,7.35-5,21.62t-4.18,19.49q3.51.44,14.91.43t15.23-.21c1.24.35,1.86.94,1.86,1.75a2.82,2.82,0,0,1-2.15,2.9,23.45,23.45,0,0,1-6.9.72l-24-.58q-1.86,6.6-5.33,22.66t-5.8,23.94l42.13.85q5.43,0,7.51-.21c1.24.35,1.86,1,1.86,1.81a2.9,2.9,0,0,1-2.45,2.93,28.26,28.26,0,0,1-6.52.48q-4.87,0-11.13-.19t-12.09-.4l-10.76-.4c-3.29-.12-6-.18-8.12-.18l-3.68.32a3.07,3.07,0,0,1-2.48-.78,2.19,2.19,0,0,1-.24-2.74,15.71,15.71,0,0,0,1-1.89c.39-.87.84-2,1.33-3.49q1.39-4.1,2.91-10.65t5.75-26.79q4.23-20.24,10.62-49.1c-1.17-.11-1.75-.81-1.75-2.11s1.06-2.51,3.19-3.64c0-2.28,1.08-3.41,3.25-3.41A1.72,1.72,0,0,1,1328.26,747.46Z"/><path class="cls-1" d="M1383,799.38q-5.33,0-5.32,6.18a21,21,0,0,0,1.92,8.47c1.27,2.91,2.36,5.24,3.24,7q5.18,10.28,5.17,15.74a13.78,13.78,0,0,1-3.3,9.29q-3.3,3.84-9.53,4.58h-.7q-6,0-8.73-7.4a1.37,1.37,0,0,1-.11-.48v-.54a2.54,2.54,0,0,1,.69-1.83,2.84,2.84,0,0,1,1.5-.88h.58a2.08,2.08,0,0,1,1.73.85,14.74,14.74,0,0,1,1.25,1.89,13.89,13.89,0,0,0,1.28,1.89,2.93,2.93,0,0,0,2.4.85,7.61,7.61,0,0,0,5.78-2.26,7.13,7.13,0,0,0,2.15-5,16.33,16.33,0,0,0-.79-5.17,67.26,67.26,0,0,0-4.59-10.22q-5.43-10.06-5.43-15.66a14.27,14.27,0,0,1,2.83-9.16,9.58,9.58,0,0,1,8-3.57,10.73,10.73,0,0,1,5.49,1.33c2.88,1.67,4.31,3.54,4.31,5.62s-.87,3.11-2.61,3.11a1.94,1.94,0,0,1-1.57-.72c-.41-.47-.84-1-1.3-1.57A5.49,5.49,0,0,0,1383,799.38Z"/><path class="cls-1" d="M1410.6,800.13a50.53,50.53,0,0,0-7.83.53c-1.45-.14-2.18-.76-2.18-1.86a3.21,3.21,0,0,1,.8-2,3.05,3.05,0,0,1,2.13-1.17l7.88.21c.14-.75.29-1.64.45-2.69s.45-2.57.86-4.58a25.69,25.69,0,0,1,1.7-5.46c.73-1.63,1.68-2.45,2.85-2.45s1.76.66,1.76,2v.69q-1.55,6.61-2.61,12.41h7.83c2.77,0,4.46.22,5.08.64a1.9,1.9,0,0,1,.93,1.6c0,1.24-.76,2.06-2.29,2.45a22.09,22.09,0,0,1-4.71.32q-3.54,0-7.7-.32-1,5.32-4.5,19.92t-3.48,18.83q0,4.23,1,5.56a2.88,2.88,0,0,0,2.35.85,4.3,4.3,0,0,0,2.82-1,15.66,15.66,0,0,0,2.13-2.1q1-1.14,1.89-2.1a2.82,2.82,0,0,1,2-1,1.93,1.93,0,0,1,2.19,2.18c0,.75-.74,2-2.21,3.7a26,26,0,0,1-4.08,4,9,9,0,0,1-5.43,1.39q-3.57,0-4.9-1.23-2.77-2.44-2.77-7.83a39.7,39.7,0,0,1,.64-6.55l1-6.18c.67-3.05,1.28-5.72,1.81-8s1-4.31,1.39-6,.9-4,1.54-6.79S1410.14,802.65,1410.6,800.13Z"/><path class="cls-1" d="M1462.42,852.91c-2.16,0-3.25-2.91-3.25-8.74a64.21,64.21,0,0,1,1.09-11.55q1.1-5.91,2.27-11.56-2,3.51-3.73,7.22c-1.17,2.47-2.2,4.45-3.09,6s-1.6,2.78-2.13,3.81q-6.87,13.1-12.75,13.1t-5.89-11.66q0-15,4.74-33.93l1.65-6.6c.68-2.41,1.81-3.62,3.41-3.62q1.38,0,1.86,1.86a9,9,0,0,1-.85,3.14,12.49,12.49,0,0,0-1,3.2q-4.68,23.64-4.69,32.27l-.1,5.12c0,2.91.48,4.36,1.43,4.36q4.15,0,14.12-19.6c1-2,2.29-4.49,3.78-7.51s2.66-5.31,3.51-6.89,1.62-3.1,2.29-4.56q4.22-9.21,7.25-9.21c1.24,0,1.86.68,1.86,2.05s-.69,3.62-2.08,6.74a66.59,66.59,0,0,0-3.4,9.58,136,136,0,0,0-4.74,28.6v.59a3.57,3.57,0,0,0,.66,2.37c.45.51.77.89,1,1.12a2.26,2.26,0,0,1,.32,1.44,2.52,2.52,0,0,1-1.25,2A4,4,0,0,1,1462.42,852.91Z"/><path class="cls-1" d="M1512.91,800.13l5.22-22.9c.35-1.63,1.22-5.85,2.58-12.65s2.37-11.53,3-14.19l.21-1.33a3.36,3.36,0,0,1,.94-2.38,2.71,2.71,0,0,1,1.94-1c1.56,0,2.34.84,2.34,2.5v.48q0,2.61-3.75,19.87t-4.87,24.28q-1.12,7-4.24,19.66t-3.91,17q-.8,4.43-1.55,7.48a26.09,26.09,0,0,0-.74,6.1,20.49,20.49,0,0,0,1,6.12,3.3,3.3,0,0,1-1.18,2.16,2.93,2.93,0,0,1-1.86.88q-1.38,0-2.4-3.27a19.5,19.5,0,0,1-1-5.49,25.7,25.7,0,0,1,.64-5.19c-1.45,4.4-3.34,7.66-5.64,9.77a13,13,0,0,1-9.08,3.17q-5.62,0-8-4.61a19.65,19.65,0,0,1-2.37-9q0-16.29,6.17-27.58a45.27,45.27,0,0,1,5.09-7.73,28.66,28.66,0,0,1,5.67-4.79,15.17,15.17,0,0,1,8.52-2.29Q1510.68,795.23,1512.91,800.13ZM1509,817.25c.55-2.89.9-4.74,1.06-5.53a22.74,22.74,0,0,0,.24-4,10.08,10.08,0,0,0-1.6-5.35,5,5,0,0,0-4.52-2.61q-5.22,0-9.56,6.58a56.57,56.57,0,0,0-6.93,15.34,54,54,0,0,0-2.58,14.78q0,6,3.41,8.57a4.77,4.77,0,0,0,3,.85q3.78,0,8.1-6.44a59.76,59.76,0,0,0,6.44-12.17A63.53,63.53,0,0,0,1509,817.25Z"/><path class="cls-1" d="M1537.68,801.89v-1.07a19.93,19.93,0,0,0-.8-3.62,3.71,3.71,0,0,1,.9-2.42,2.77,2.77,0,0,1,2.21-1.09,2.5,2.5,0,0,1,2.16,1.65A7.76,7.76,0,0,1,1543,799q0,2-5,23.54t-5,22.71c0,.77.35,1.15,1.06,1.15.46,0,1.12-.45,2-1.36a3.49,3.49,0,0,1,2.19-1.36c1.17,0,1.76.74,1.76,2.21s-1.11,2.76-3.31,3.86a12.72,12.72,0,0,1-4.79,1.65c-2.49,0-3.73-2-3.73-6a8.66,8.66,0,0,1,.51-2.74,38.29,38.29,0,0,0,1.06-4.21q.57-2.69,1.6-7.32t2.13-9.59q1.1-4.95,2.66-12T1537.68,801.89Zm7.5-24.87c2.1,0,3.15,1,3.15,3.14q0,4.58-3.2,5.16a11,11,0,0,1-2,.16,3.06,3.06,0,0,1-2.13-1.06,3.72,3.72,0,0,1-1.06-2.74,4.28,4.28,0,0,1,1.65-3.17A5.2,5.2,0,0,1,1545.18,777Z"/><path class="cls-1" d="M1576.34,795.23q10.07,0,10.07,15.23,0,11.88-6.55,25.51-4.42,9.16-10.66,13.21a11.92,11.92,0,0,1-6.6,2.08q-6,0-8.63-4.8a21.22,21.22,0,0,1-2.61-10.33,56.69,56.69,0,0,1,3.33-19.22,44.4,44.4,0,0,1,9.06-15.5Q1569.47,795.23,1576.34,795.23Zm-14.27,17.63a50,50,0,0,0-5.75,22.47q0,7.62,4.2,10.23a5.46,5.46,0,0,0,2.93.8q3.4,0,7.62-5.91a55.08,55.08,0,0,0,7.08-14.57A48.34,48.34,0,0,0,1581,811q0-6.19-.72-7.85a5.21,5.21,0,0,0-1.65-2.29,5.6,5.6,0,0,0-3.09-.64,8.69,8.69,0,0,0-4.71,1.7Q1565.9,805.14,1562.07,812.86Z"/><path class="cls-1" d="M1670.93,800.13l5.22-22.9q.52-2.44,2.58-12.65t3-14.19l.21-1.33a3.35,3.35,0,0,1,.93-2.38,2.71,2.71,0,0,1,1.95-1c1.56,0,2.34.84,2.34,2.5v.48q0,2.61-3.75,19.87t-4.88,24.28q-1.11,7-4.23,19.66t-3.92,17q-.8,4.43-1.54,7.48a25.59,25.59,0,0,0-.75,6.1,20.49,20.49,0,0,0,1,6.12,3.25,3.25,0,0,1-1.17,2.16,3,3,0,0,1-1.86.88q-1.4,0-2.4-3.27a19.5,19.5,0,0,1-1-5.49,25,25,0,0,1,.64-5.19q-2.19,6.6-5.65,9.77a12.93,12.93,0,0,1-9.08,3.17q-5.61,0-8-4.61a19.65,19.65,0,0,1-2.37-9q0-16.29,6.18-27.58a44.68,44.68,0,0,1,5.09-7.73,28.66,28.66,0,0,1,5.67-4.79,15.17,15.17,0,0,1,8.52-2.29Q1668.69,795.23,1670.93,800.13ZM1667,817.25c.55-2.89.91-4.74,1.07-5.53a22.74,22.74,0,0,0,.24-4,10.17,10.17,0,0,0-1.6-5.35,5,5,0,0,0-4.53-2.61q-5.22,0-9.56,6.58a56.87,56.87,0,0,0-6.92,15.34,54,54,0,0,0-2.58,14.78q0,6,3.4,8.57a4.8,4.8,0,0,0,3,.85q3.78,0,8.09-6.44a59.35,59.35,0,0,0,6.45-12.17A63.39,63.39,0,0,0,1667,817.25Z"/><path class="cls-1" d="M1710.39,841.35c1.24,0,1.87.66,1.87,2q0,2.29-5.6,5.17t-9.32,2.87a10.26,10.26,0,0,1-5.59-1.22,9.16,9.16,0,0,1-3-3.41,21.39,21.39,0,0,1-2.3-10.28,62.18,62.18,0,0,1,3.2-20.08,46.82,46.82,0,0,1,8.52-15.63q5.33-6.19,11.51-6.2a6,6,0,0,1,5.19,2.74,11.13,11.13,0,0,1,1.89,6.47,19.13,19.13,0,0,1-3.65,11.83,29.83,29.83,0,0,1-9,7.93,94.93,94.93,0,0,1-12.25,5.86l-.22,7.83q0,9.16,5.54,9.16a13.45,13.45,0,0,0,6.26-1.73c2.18-1.16,3.76-2,4.71-2.51A5.35,5.35,0,0,1,1710.39,841.35Zm1.33-37.39c0-2.83-1.19-4.26-3.57-4.26q-3.2,0-7.51,5.76a48.38,48.38,0,0,0-7.13,15.17,19.43,19.43,0,0,0-.8,3.47q2.13-1.17,4.37-2.24t4.36-2.24a23.12,23.12,0,0,0,7.59-6.36A15.21,15.21,0,0,0,1711.72,804Z"/><path class="cls-1" d="M1774.67,815.52q4.21.54,14.17,1,9.21-13.9,23.59-41,9-16.95,11.67-29.19a4.11,4.11,0,0,1,1.38-1.86,3.05,3.05,0,0,1,1.87-.75c.92,0,1.43.55,1.54,1.65a2.36,2.36,0,0,1,.77,1.92A2.49,2.49,0,0,1,1829,749a53.24,53.24,0,0,0-1.73,9q-.51,4.71-2.08,17.44a179.25,179.25,0,0,0-1.57,21.41,201.81,201.81,0,0,0,1.33,21.09q6.55.69,7.08,1.44a2.73,2.73,0,0,1,.53,1.65,2.58,2.58,0,0,1-1,1.83,2.75,2.75,0,0,1-2.13.86c-.76-.06-1.43-.13-2-.22l-1.76-.24v.54c0,.21.07.76.19,1.65a28,28,0,0,1,.21,3.67c0,1.57.09,3,.22,4.18a34.16,34.16,0,0,0,.61,3.81q.42,2,1.25,5.67a29.37,29.37,0,0,1,.83,4.88,2.9,2.9,0,0,1-.88,2.07,2.69,2.69,0,0,1-2,.91c-.73,0-1.36-.53-1.89-1.57a16.43,16.43,0,0,1-1.33-4,53.66,53.66,0,0,1-.88-5.49q-.35-3-.62-6t-.45-5.49c-.12-1.68-.26-3-.4-4l-.32-1.49q-7.24-.75-14.64-.86t-14.81-.26q-14.05,21.3-26.52,27-4.15,2.07-6.5,2.07c-1.92,0-2.88-.9-2.88-2.71a3.37,3.37,0,0,1,1-2.4,2.79,2.79,0,0,1,2-1,1.83,1.83,0,0,1,1.62.9l.11-.1q11.4-4.43,21.52-17.9c1-1.42,1.86-2.54,2.5-3.35s1.26-1.67,1.86-2.56q-8.25-.42-12.35-.85c-1-.39-1.49-1-1.49-1.76a3,3,0,0,1,.93-2.13A3.58,3.58,0,0,1,1774.67,815.52Zm45.06,1.87a162.44,162.44,0,0,1-.91-19.36,234.2,234.2,0,0,1,2.29-29.64q-6.43,13.36-14.3,27.08t-12.59,21.12q6.39.1,12.81.18T1819.73,817.39Z"/><path class="cls-1" d="M1844.39,850.09l2.45-13q1.92-10,2.61-14.14t1.57-9.21a147.3,147.3,0,0,1,3.59-14.46,1.33,1.33,0,0,1-.1-.48v-.53a3.89,3.89,0,0,1,2-3.68,2.23,2.23,0,0,1,1.22-.37c1.53,0,2.29,1.1,2.29,3.3a28.18,28.18,0,0,1-1.54,6.9,93.47,93.47,0,0,0-2.4,9.24c.5-.82,1.11-1.85,1.84-3.09s1.88-3.05,3.46-5.43a35.31,35.31,0,0,1,6-6.79,11,11,0,0,1,7.35-3.23,7.62,7.62,0,0,1,5.72,2,2.29,2.29,0,0,1,.75,1.76,2.5,2.5,0,0,1-1,1.91,3,3,0,0,1-2,.85,3.78,3.78,0,0,1-2-.56,4.17,4.17,0,0,0-2.13-.55c-.79,0-2,.64-3.73,1.91q-10.17,7.41-16.78,29.35a81.6,81.6,0,0,0-2.13,8.07c-.25,1.47-.46,2.67-.64,3.59q-1.59,8.58-4.9,8.58C1844.9,852.06,1844.39,851.4,1844.39,850.09Z"/><path class="cls-1" d="M1893.23,800.13a50.53,50.53,0,0,0-7.83.53q-2.19-.21-2.19-1.86a3.21,3.21,0,0,1,.8-2,3.05,3.05,0,0,1,2.13-1.17l7.88.21c.15-.75.3-1.64.46-2.69s.44-2.57.85-4.58a26.89,26.89,0,0,1,1.7-5.46c.73-1.63,1.68-2.45,2.85-2.45s1.76.66,1.76,2v.69q-1.55,6.61-2.61,12.41h7.83c2.77,0,4.46.22,5.09.64a1.9,1.9,0,0,1,.93,1.6c0,1.24-.77,2.06-2.29,2.45a22.13,22.13,0,0,1-4.72.32q-3.54,0-7.69-.32-1,5.32-4.5,19.92t-3.49,18.83q0,4.23,1,5.56a2.84,2.84,0,0,0,2.34.85,4.3,4.3,0,0,0,2.82-1,15.18,15.18,0,0,0,2.14-2.1q.94-1.14,1.89-2.1a2.8,2.8,0,0,1,2.05-1,1.93,1.93,0,0,1,2.18,2.18c0,.75-.74,2-2.21,3.7a25.54,25.54,0,0,1-4.07,4,9,9,0,0,1-5.44,1.39q-3.57,0-4.9-1.23c-1.84-1.63-2.77-4.24-2.77-7.83a40.82,40.82,0,0,1,.64-6.55l1-6.18c.68-3.05,1.28-5.72,1.82-8s1-4.31,1.38-6,.91-4,1.54-6.79S1892.76,802.65,1893.23,800.13Z"/><path class="cls-1" d="M1940.79,841.35c1.24,0,1.86.66,1.86,2q0,2.29-5.59,5.17t-9.32,2.87a10.3,10.3,0,0,1-5.6-1.22,9.16,9.16,0,0,1-3-3.41,21.39,21.39,0,0,1-2.29-10.28,62.17,62.17,0,0,1,3.19-20.08,46.83,46.83,0,0,1,8.53-15.63q5.32-6.19,11.5-6.2a6,6,0,0,1,5.19,2.74,11.13,11.13,0,0,1,1.89,6.47,19.07,19.07,0,0,1-3.65,11.83,29.83,29.83,0,0,1-9,7.93,94.3,94.3,0,0,1-12.25,5.86l-.21,7.83q0,9.16,5.54,9.16a13.48,13.48,0,0,0,6.26-1.73l4.71-2.51A5.31,5.31,0,0,1,1940.79,841.35Zm1.33-37.39c0-2.83-1.19-4.26-3.57-4.26q-3.19,0-7.51,5.76a48.16,48.16,0,0,0-7.14,15.17,19.43,19.43,0,0,0-.8,3.47q2.13-1.17,4.37-2.24t4.37-2.24a23.33,23.33,0,0,0,7.59-6.36A15.27,15.27,0,0,0,1942.12,804Z"/><path class="cls-1" d="M974.73,349q35.64,0,47.12,38.47a8.84,8.84,0,0,1,1.19,4.7,6.93,6.93,0,0,1-2.61,5.14,7.87,7.87,0,0,1-5.29,2.39q-4.62,0-5.52-5.67a40.56,40.56,0,0,0-11.33-22.81q-9.25-9.4-23.56-9.4t-21.63,10q-7.3,10-7.3,23.56a112.34,112.34,0,0,0,3.65,27.89,255.3,255.3,0,0,0,9.17,28.63q5.52,14.31,11.86,28.63t11.85,28.78q12.82,33.56,12.83,60.32a86.6,86.6,0,0,1-14.77,49q-18.93,29.08-59.64,29.08-31.17,0-53.91-15.51T844.1,587.76q0-28.92,17.29-50a141.47,141.47,0,0,1,15.36-15.65,9,9,0,0,1,5.67-2.54q6,0,6,4.92a8.38,8.38,0,0,1-1.35,4.63q-15.21,14-20.13,23.26-8.2,16.11-8.2,31t5.22,23.86a46.26,46.26,0,0,0,13.87,14.91q17,11.92,44.21,11.93t44.07-21.48q14.46-18.33,14.46-44.81t-24.75-84Q931,426.27,931,403.82t10.74-38.62Q952.51,349,974.73,349Z"/><path class="cls-1" d="M1037.45,581.68q7.58,1,25.5,1.72,16.59-25,42.47-73.72,16.2-30.48,21-52.53a7.57,7.57,0,0,1,2.49-3.35,5.49,5.49,0,0,1,3.35-1.35c1.67,0,2.59,1,2.78,3a4.24,4.24,0,0,1,1.39,3.45,4.51,4.51,0,0,1-1.19,3,97.56,97.56,0,0,0-3.12,16.25q-.91,8.47-3.74,31.39a324.92,324.92,0,0,0-2.83,38.54,364.07,364.07,0,0,0,2.4,38q11.79,1.25,12.75,2.59a5,5,0,0,1,1,3,4.71,4.71,0,0,1-1.77,3.31,5,5,0,0,1-3.84,1.53c-1.37-.09-2.57-.22-3.59-.38s-2.08-.3-3.17-.43v1c0,.38.11,1.37.34,3a55.4,55.4,0,0,1,.38,6.61q0,4.23.39,7.53a61.13,61.13,0,0,0,1.1,6.85q.76,3.56,2.25,10.21a52.65,52.65,0,0,1,1.49,8.78,5.18,5.18,0,0,1-1.59,3.73,4.81,4.81,0,0,1-3.54,1.63q-2,0-3.41-2.83a30.7,30.7,0,0,1-2.39-7.23,98.19,98.19,0,0,1-1.58-9.88c-.42-3.64-.79-7.24-1.11-10.78s-.59-6.84-.81-9.88-.47-5.41-.72-7.14l-.58-2.68q-13-1.35-26.36-1.54t-26.65-.47q-25.3,38.34-47.74,48.5-7.47,3.75-11.69,3.74c-3.46,0-5.18-1.63-5.18-4.89a6,6,0,0,1,1.72-4.31,5,5,0,0,1,3.6-1.82,3.28,3.28,0,0,1,2.92,1.63l.2-.19q20.5-8,38.72-32.22,2.79-3.83,4.51-6t3.36-4.61q-14.87-.76-22.25-1.53c-1.79-.7-2.68-1.76-2.68-3.16a5.39,5.39,0,0,1,1.68-3.84A6.42,6.42,0,0,1,1037.45,581.68Zm81.11,3.35q-1.63-12.84-1.63-34.84t4.12-53.35q-11.61,24.06-25.74,48.74t-22.67,38q11.5.18,23,.33T1118.56,585Z"/><path class="cls-1" d="M1305.3,459q2.6-4.7,5.7-4.69c2.08,0,3.12,1,3.12,2.87v.58q-5.85,97.49-6.52,179.26a5.12,5.12,0,0,1-.1,5q-2.3,4.69-5.36,4.69-3.75,0-4-6.61-.09-1.92-.1-12.17t.53-29.15q.53-18.88,1.25-37.91t1.48-38q.76-18.94,1.25-37.44-9.49,21.18-32.93,65.81t-31.49,60.83q-2.2,4.13-5,4.12a3.84,3.84,0,0,1-3.83-2.78q-5-23-15.15-68.54t-13.9-64.14q-6.42,32.59-20.32,89.92t-17.16,71.9q-1.92,3.93-5.46,3.93c-2,0-3.1-1.31-3.36-3.93q6.22-34.21,21.19-96.29t20.61-87.1a6.72,6.72,0,0,1,2.25-3.3,5,5,0,0,1,3.12-1.39c1.85,0,3.06,1.08,3.64,3.26q8.15,35.26,16.44,75.25t13.56,62.41q13.14-22.64,24.35-45t22.1-44.1Q1292.07,484.57,1305.3,459Z"/><path class="cls-1" d="M1353.33,464.63c-2.49,0-3.74-1.22-3.74-3.64a4.68,4.68,0,0,1,1.82-3.31,7,7,0,0,1,4.31-1.87h16.78q10,0,22,.19c2,.7,3,1.73,3,3.07a5.2,5.2,0,0,1-1.53,3.64,7.1,7.1,0,0,1-3.74,2.11H1386q-2.68,0-7.48-.19-28.38,114.07-38.73,170.83,18.12.48,19.75,3.64a3.74,3.74,0,0,1,.48,2,4.89,4.89,0,0,1-1.68,3,6.46,6.46,0,0,1-4,2.07,75.36,75.36,0,0,1-11.17-.87c-3.86-.57-6.85-1-9-1.24a64,64,0,0,0-7.67-.39,32.1,32.1,0,0,0-9.49,1.54h-1a4,4,0,0,1-3-1,3.32,3.32,0,0,1-1-2.35q0-6.61,18.5-6.61h.77q8.14-43.72,20.61-96.73t17.25-73.91q-1.44.09-2.4.09h-5.17Z"/><path class="cls-1" d="M1534.55,546.9q11.79,1.5,39.67,2.69,25.8-38.93,66.06-114.68,25.2-47.42,32.66-81.72a11.84,11.84,0,0,1,3.88-5.22,8.59,8.59,0,0,1,5.22-2.09c2.58,0,4,1.55,4.32,4.63a6.66,6.66,0,0,1,2.16,5.37,7,7,0,0,1-1.86,4.62,151.88,151.88,0,0,0-4.85,25.27q-1.41,13.2-5.81,48.84t-4.4,59.95q0,24.3,3.73,59.05,18.33,1.93,19.83,4a7.79,7.79,0,0,1,1.49,4.62q0,2.54-2.76,5.15a7.7,7.7,0,0,1-6,2.38q-3.21-.22-5.6-.59c-1.59-.25-3.23-.48-4.92-.68V570c0,.59.18,2.13.53,4.62a87.32,87.32,0,0,1,.59,10.29q.08,6.55.6,11.7a98.6,98.6,0,0,0,1.71,10.67q1.2,5.51,3.51,15.88t2.31,13.64a8.12,8.12,0,0,1-2.46,5.82,7.52,7.52,0,0,1-5.52,2.53c-2,0-3.8-1.46-5.29-4.4a47.08,47.08,0,0,1-3.73-11.25,153,153,0,0,1-2.46-15.36q-1-8.5-1.72-16.78c-.49-5.52-.92-10.64-1.26-15.36s-.73-8.43-1.12-11.11l-.9-4.18q-20.28-2.09-41-2.38t-41.45-.75q-39.37,59.65-74.26,75.46-11.64,5.82-18.2,5.81-8.05,0-8-7.6a9.43,9.43,0,0,1,2.68-6.71,7.76,7.76,0,0,1,5.6-2.83,5.13,5.13,0,0,1,4.54,2.53l.3-.3q31.92-12.37,60.25-50.1,4.32-6,7-9.4c1.79-2.28,3.52-4.67,5.22-7.16q-23.11-1.18-34.6-2.38c-2.78-1.09-4.18-2.73-4.18-4.92a8.38,8.38,0,0,1,2.61-6A10,10,0,0,1,1534.55,546.9Zm126.16,5.22q-2.54-20-2.53-54.21t6.41-83q-18,37.43-40,75.83t-35.27,59.12q17.9.3,35.87.53T1660.71,552.12Z"/><path class="cls-1" d="M1749.55,554.74c0-3.9,1.08-5.85,3.26-5.85a3.69,3.69,0,0,1,2.49.58,23.4,23.4,0,0,0,2.16,1.77q1.57,1.2,9,1.2a33.11,33.11,0,0,0,15.43-4.22,44.89,44.89,0,0,0,13.85-11.31q12.27-15,12.27-35.76,0-16.09-7.81-27.27t-20.47-11.17q-10.07,0-15.33,1.53l-36.24,177.07q-1.07,3.35-5.47,3.35t-4.41-3.16a8,8,0,0,1,.29-2c.19-.73.58-2.54,1.15-5.41q2.12-10.85,14.33-69.17t20.76-96.2a53.45,53.45,0,0,0-6.9,5.46,5.29,5.29,0,0,1-2,3.65,6.35,6.35,0,0,1-4.21,1.53l-2.4-.57a4.19,4.19,0,0,1-2.69-4q0-5.37,6.28-9.92a45.67,45.67,0,0,1,15.68-6.95q3.45-8.25,6.32-8.25c1.54,0,2.69,2.18,3.46,6.52a57.27,57.27,0,0,1,7.86-.57q20.61,0,31.15,14.57,8.73,12.07,8.73,31.92,0,25.5-15,42.52t-41.94,17a188.92,188.92,0,0,0,11.12,63.94q12.95,36.72,39.31,54.17,20.13,13.43,47.45,13.42t50-18.41q6.8-5.65,14.18-12.27a3.45,3.45,0,0,1,2.5-.76q3.54,0,3.54,3.54a6.26,6.26,0,0,1-1.53,3.93q-14.58,15.06-28.47,22.53-19,10.26-42.9,10.26t-46.45-13.81q-40.65-25.11-53.59-84.55Q1749.54,582.06,1749.55,554.74Z"/><path class="cls-1" d="M1877.14,465.78q-22.42-.57-30.91-.58t-18.36.58c-2.75-.26-4.12-1.34-4.12-3.26q0-5.46,10-6.14c1.85-.12,3.7-.19,5.56-.19l40.16.77q2.79-8.25,7.48-8.25,2.77,0,3.36,3.36l.38,3.93-.19,1q5.46-.19,9.73-.48l8-.53q3.69-.24,11.08-.76t16.29-.53h7.1a19.64,19.64,0,0,0,2.59-.19q3.35.86,3.35,3.26,0,5.94-9.59,5.94-12.45,0-26.65,1t-25.78,1.15q-3.27,16.2-7.91,36.47T1864.78,569q-9.21,46.5-14.19,77.18a7.33,7.33,0,0,1-2.16,4,4.86,4.86,0,0,1-3.21,1.58c-2.17,0-3.39-1.38-3.64-4.13q5.84-48.49,25.88-133.82,2.88-12.46,4.41-18.22t2-8.82q.48-3.06,1-6.56c.35-2.34.7-4.73,1-7.19S1876.69,468.14,1877.14,465.78Z"/><path class="cls-2" d="M237.87,931.2C43.11,738,174.81,565.22,204.49,526.89c-171.87,393.19,317.76,510.65,380.81,209-149.6,277-576.56,5.57-264.54-284.71C384.49,391.86,441.88,332.78,385,62c39.57,200.3-70,294.53-165.68,353.62C-23,565.22,80.84,884.22,237.87,931.2Z"/><path class="cls-3" d="M174.81,821.16C406,1181,873.39,777.89,579.12,432.93c-33.61-39.41-88.35-69.64-133.53-19.79-28.27,31.2-50.9,41-90.26,50.7,126.2-31.16,228.32,51.44,251,173.1C657.83,913.31,325.65,1023.93,174.81,821.16Z"/><path class="cls-2" d="M800.44,624.57c-178,86.55-233.68-86.55-158.26-132.3,81.58-49.48,118.69-145.89,32.15-232.44C718.84,384.71,614.44,398.75,560.7,471.4,441.88,632,689.16,806.32,800.44,624.57Z"/></g></svg>